<?xml version="1.0" standalone="no"?>
<!DOCTYPE svg PUBLIC "-//W3C//DTD SVG 20010904//EN"
 "http://www.w3.org/TR/2001/REC-SVG-20010904/DTD/svg10.dtd">
<svg version="1.0" xmlns="http://www.w3.org/2000/svg"
 width="358.000000pt" height="236.000000pt" viewBox="0 0 358.000000 236.000000"
 preserveAspectRatio="xMidYMid meet">
<metadata>
Created by potrace 1.15, written by Peter Selinger 2001-2017
</metadata>
<g transform="translate(0.000000,236.000000) scale(0.100000,-0.100000)"
fill="#000000" stroke="none">
<path d="M1455 1819 c-22 -11 -54 -36 -72 -56 -18 -19 -37 -32 -43 -28 -13 8
-50 -22 -50 -42 0 -8 -13 -13 -37 -13 -49 -1 -108 -48 -99 -78 9 -27 -27 -40
-50 -18 -8 9 -21 17 -27 17 -56 6 -86 -26 -87 -91 0 -54 -4 -60 -52 -82 -20
-9 -49 -34 -64 -55 -16 -21 -53 -62 -82 -91 -63 -62 -132 -199 -136 -269 -1
-23 1 -43 4 -43 4 0 13 -19 20 -42 7 -24 15 -37 17 -30 3 7 -2 30 -11 51 -8
21 -12 42 -8 45 3 4 1 11 -6 15 -30 18 60 195 143 282 56 58 65 64 81 52 25
-18 39 -16 69 10 24 20 27 31 32 107 6 91 15 120 38 120 10 0 15 -10 15 -29 0
-17 5 -33 10 -36 6 -4 7 -11 4 -17 -4 -7 -2 -8 5 -4 8 6 10 1 5 -18 -5 -21 -2
-27 21 -36 40 -15 70 -12 90 10 17 18 16 20 -6 49 -13 16 -31 28 -39 26 -8 -3
-22 0 -30 6 -12 8 -9 9 9 4 16 -5 21 -4 17 4 -8 13 -56 15 -56 2 0 -13 46 -41
68 -41 11 0 25 -7 32 -15 11 -13 10 -18 -6 -30 -23 -17 -26 -18 -58 -5 -18 6
-26 17 -26 33 0 13 -5 28 -11 34 -11 11 -21 73 -12 73 2 0 11 -7 19 -15 20
-19 58 -19 74 0 9 11 17 12 32 4 35 -19 120 -41 135 -35 8 3 11 1 8 -4 -3 -6
6 -15 20 -20 38 -15 39 -13 10 25 -15 19 -30 34 -33 33 -16 -5 -73 22 -78 37
-6 15 11 45 26 45 4 0 14 -19 23 -42 9 -23 19 -39 22 -36 3 3 -2 22 -10 42
-20 47 -16 90 8 94 13 3 17 -3 17 -26 0 -31 24 -97 39 -106 4 -3 6 -17 3 -31
-2 -15 0 -25 7 -25 13 0 15 56 2 64 -5 3 -11 14 -14 25 -3 14 -1 18 10 14 11
-4 10 4 -7 36 l-21 43 26 34 c39 52 62 60 85 32 41 -49 39 -190 -4 -283 -28
-61 -69 -115 -182 -236 -39 -42 -73 -85 -76 -96 -6 -23 24 -124 60 -206 18
-39 37 -65 59 -78 39 -25 42 -32 8 -23 -16 4 -36 -1 -60 -16 -37 -23 -75 -24
-155 -5 -24 6 -24 6 -6 -9 11 -9 29 -14 40 -10 14 3 17 2 8 -3 -9 -7 -6 -15
13 -31 41 -36 23 -46 -71 -38 -46 3 -84 3 -84 -1 0 -3 8 -15 18 -26 17 -20 16
-20 -13 -13 -21 4 -25 3 -14 -3 8 -6 28 -12 44 -15 32 -6 59 -26 34 -26 -44 0
-200 67 -262 112 -38 27 -71 48 -73 45 -2 -2 23 -24 56 -48 33 -24 60 -46 60
-50 0 -3 19 -19 43 -35 23 -15 52 -37 64 -47 13 -11 27 -16 35 -11 7 4 10 4 6
-1 -11 -12 43 -46 150 -94 196 -87 332 -111 664 -114 108 -1 194 -5 192 -9 -2
-3 -48 -17 -102 -30 -85 -20 -121 -23 -292 -22 -223 0 -326 15 -487 69 -97 33
-216 87 -258 118 -18 14 -17 16 25 26 l45 11 -52 -5 c-51 -4 -53 -3 -83 35
-42 53 -73 126 -75 180 -3 56 -14 100 -26 100 -12 0 -11 -25 1 -90 14 -76 49
-146 106 -213 42 -51 64 -66 159 -112 189 -92 323 -122 571 -132 198 -7 331 6
438 44 39 13 98 30 131 38 100 22 155 39 155 46 0 4 -114 6 -252 6 -210 -2
-271 1 -362 17 -74 13 -103 22 -90 27 13 5 8 7 -19 7 -93 -2 39 -38 217 -59
56 -6 174 -10 273 -7 154 4 169 3 131 -9 -24 -7 -51 -10 -60 -7 -10 3 -28 0
-40 -7 -33 -18 -269 -12 -404 11 -105 18 -286 62 -384 94 l-45 14 60 -5 c33
-3 79 -9 102 -13 31 -5 46 -4 54 6 11 13 -10 28 -83 61 -47 21 -31 5 22 -22
28 -14 50 -28 50 -31 0 -4 -21 -4 -47 0 -27 3 -90 10 -142 15 -74 8 -115 19
-192 51 -107 46 -147 82 -54 49 57 -20 105 -25 105 -11 0 5 -18 23 -41 41 -22
18 -38 36 -34 39 3 3 10 1 15 -4 5 -5 39 -7 75 -6 76 4 91 19 55 58 l-23 24
39 0 c21 1 50 7 64 15 54 31 160 2 160 -44 0 -19 -2 -19 -72 5 -104 35 -113
28 -48 -37 30 -30 66 -62 80 -71 l25 -17 -35 9 c-19 6 -62 16 -95 24 -33 8
-68 18 -77 21 -10 4 -18 3 -18 -3 0 -12 140 -95 147 -88 3 3 -18 17 -47 31
-29 14 -50 29 -47 31 10 11 213 -49 248 -72 21 -15 50 -24 72 -24 32 0 45 7
82 47 52 56 123 128 181 183 28 26 47 57 59 92 37 117 82 154 171 145 53 -5
123 -32 159 -61 19 -14 15 -15 -60 -17 l-80 -2 85 -7 c47 -4 87 -5 90 -2 3 2
-12 19 -33 37 -48 42 -114 65 -185 65 -51 0 -57 -3 -97 -43 -30 -30 -47 -58
-59 -99 -16 -56 -60 -119 -97 -139 -15 -8 -12 5 16 71 47 109 88 169 145 211
100 74 188 76 253 6 33 -35 36 -37 22 -12 -43 75 -134 96 -227 52 -84 -39
-123 -86 -194 -234 -35 -73 -69 -133 -75 -133 -5 0 -8 4 -4 9 14 23 8 158 -8
191 -15 29 -15 35 -2 50 8 9 32 54 54 100 40 85 59 107 161 194 l55 47 95 -5
95 -5 -84 10 c-46 6 -95 8 -108 4 -13 -3 -59 -39 -101 -80 l-78 -73 4 66 c4
63 2 70 -36 133 -42 68 -93 182 -106 234 l-8 30 24 -22 c41 -38 109 -61 268
-88 165 -28 222 -45 316 -95 62 -34 85 -50 69 -50 -37 0 -182 32 -201 45 -21
14 -24 13 -39 -7 -21 -30 -19 -41 4 -26 11 7 17 17 15 23 -3 5 15 -12 40 -40
27 -28 44 -56 41 -64 -5 -11 -3 -12 10 -1 14 12 12 17 -15 45 -28 29 -41 53
-21 41 5 -3 29 -8 52 -11 85 -10 164 -28 194 -43 17 -9 55 -17 85 -18 30 -1
80 -6 110 -11 52 -8 55 -10 52 -34 -3 -23 0 -26 21 -22 18 4 29 -2 43 -22 11
-15 26 -35 35 -45 16 -17 16 -20 -1 -47 -10 -17 -38 -46 -62 -66 -83 -68 -152
-83 -221 -48 -20 10 -34 15 -31 10 3 -5 19 -16 36 -25 52 -27 130 -13 198 34
81 57 114 111 118 194 l4 68 41 0 40 0 -21 -23 c-12 -13 -22 -29 -22 -36 0 -7
12 2 27 20 15 17 59 47 98 65 98 46 227 79 224 57 -1 -5 0 -33 2 -63 l2 -55 6
65 c3 36 3 69 -1 74 -7 10 -117 -17 -188 -46 -34 -14 -40 -14 -25 -3 11 9 51
25 90 36 87 26 127 47 122 62 -2 6 8 22 22 34 15 15 21 27 15 33 -9 9 -182 23
-454 37 -153 7 -174 0 -260 -95 -33 -36 -59 -67 -57 -68 2 -2 37 30 79 71 l77
75 88 0 c95 0 505 -21 512 -27 2 -1 -4 -12 -14 -23 -16 -17 -31 -20 -111 -20
-105 0 -244 -17 -259 -32 -7 -7 8 -8 45 -3 82 11 300 21 300 14 0 -9 -67 -35
-113 -43 -20 -4 -65 -26 -100 -50 l-62 -42 -93 4 c-80 4 -95 2 -114 -14 -15
-14 -22 -16 -25 -6 -3 6 -15 12 -29 12 -13 0 -45 5 -71 12 -27 6 -66 15 -88
21 -37 8 -38 10 -20 23 16 12 16 14 3 14 -9 0 -20 -4 -23 -10 -11 -19 -50 -10
-105 23 -57 34 -117 64 -183 91 -21 9 -98 25 -170 37 -244 39 -302 68 -383
192 -39 61 -76 97 -97 97 -1 0 -20 -9 -42 -21z m85 -21 c11 -12 20 -26 20 -30
0 -5 14 -26 30 -47 17 -20 44 -77 61 -126 35 -101 56 -146 105 -223 27 -41 34
-63 34 -100 0 -58 -22 -134 -52 -182 -12 -19 -22 -39 -23 -45 0 -5 -6 -9 -12
-8 -6 1 -9 -6 -6 -16 5 -18 -20 -34 -43 -30 -34 6 -61 -39 -44 -72 9 -15 7
-25 -9 -46 -12 -14 -21 -32 -21 -39 0 -15 -18 -18 -37 -6 -8 5 -8 15 2 40 15
33 30 41 38 20 3 -7 6 -3 6 10 2 44 -42 16 -70 -47 l-19 -43 23 6 c24 6 55 -8
40 -17 -16 -10 -125 17 -158 38 -73 46 -111 85 -132 131 -32 76 -55 164 -49
189 3 13 36 57 74 97 140 152 178 208 208 307 25 83 13 183 -29 229 -9 10 -14
22 -10 25 14 14 53 6 73 -15z m124 -830 c-5 -7 -2 -9 8 -5 10 3 19 -3 27 -19
13 -29 14 -37 3 -30 -4 2 -7 -35 -7 -82 0 -48 -3 -99 -8 -114 -12 -45 -65 -97
-109 -109 -36 -9 -43 -8 -79 17 -21 15 -39 30 -39 34 0 4 -6 7 -13 7 -19 0
-96 54 -136 97 l-35 36 76 -26 c72 -24 76 -27 82 -60 4 -19 12 -34 18 -34 6 0
7 7 3 18 -12 32 -16 77 -7 91 8 11 16 11 46 1 l36 -12 -25 -30 c-34 -41 -35
-95 0 -108 25 -9 85 4 85 19 0 5 -10 16 -22 27 l-23 19 19 -22 c18 -22 18 -22
-7 -28 -60 -15 -82 16 -53 74 18 34 50 48 71 31 20 -16 19 -34 0 -26 -8 3 -22
9 -30 12 -8 3 -15 2 -15 -2 0 -5 19 -17 41 -26 36 -15 44 -16 69 -3 15 8 33
29 39 46 12 34 3 66 -10 33 -6 -15 -8 -13 -8 12 -1 18 -10 39 -21 49 -12 11
-17 22 -11 28 5 5 4 20 -2 36 -13 36 -3 61 23 61 14 0 19 -4 14 -12z"/>
<path d="M901 1266 c-32 -39 36 -149 145 -236 41 -33 69 -60 61 -60 -8 0 -21
-8 -30 -18 -14 -15 -17 -37 -15 -108 l2 -89 5 90 c5 80 8 91 29 101 33 17 36
22 21 40 -13 16 -12 17 9 12 12 -4 22 -2 22 3 0 5 -4 9 -8 9 -5 0 -34 24 -65
54 -54 52 -77 98 -77 152 0 30 -21 53 -56 60 -21 4 -34 1 -43 -10z"/>
<path d="M1963 963 c-41 -8 -24 -23 25 -23 114 0 275 -86 344 -183 18 -25 19
-30 5 -24 -9 3 -17 2 -17 -3 0 -6 7 -10 15 -10 8 0 14 -5 13 -12 -2 -6 6 -14
17 -16 11 -2 50 -30 86 -62 54 -48 165 -128 275 -197 16 -11 15 -11 -8 -3
-112 39 -309 177 -395 279 -45 52 -56 73 -25 50 15 -13 16 -12 3 4 -18 22 -51
41 -51 29 0 -5 11 -26 25 -46 14 -20 25 -39 25 -41 0 -2 -17 -6 -37 -8 -35 -4
-35 -4 7 -4 41 0 50 -6 100 -53 58 -56 166 -133 238 -169 23 -12 42 -23 42
-26 0 -10 -187 49 -205 65 -33 29 -81 50 -233 100 -80 26 -137 49 -127 51 9 2
-27 5 -81 7 -55 2 -124 6 -154 10 l-55 8 41 27 c22 15 61 31 85 36 35 7 38 9
14 10 -35 1 -97 -27 -140 -62 l-30 -25 124 -7 c68 -4 117 -11 110 -15 -14 -8
-142 -45 -311 -91 -49 -13 -88 -27 -88 -31 0 -5 39 3 120 26 l25 7 -25 -20
c-35 -28 -19 -36 27 -13 83 43 111 44 393 18 47 -5 50 -4 20 4 -19 5 -84 14
-145 21 -157 17 -161 21 -57 52 l90 27 80 -24 c113 -34 216 -72 260 -96 20
-11 28 -18 17 -16 -11 3 -27 1 -35 -5 -13 -9 -12 -10 3 -5 9 3 17 2 17 -2 0
-4 13 -9 29 -10 16 -1 49 -9 72 -18 86 -31 258 -72 261 -63 2 6 59 -13 128
-42 191 -79 250 -100 250 -89 0 5 -18 14 -40 20 -21 6 -46 17 -53 25 -8 8 -17
12 -20 8 -3 -3 -25 10 -49 29 -57 46 -82 58 -38 18 l35 -31 -52 25 c-28 14
-54 30 -58 36 -4 6 -11 8 -16 5 -5 -3 -19 3 -31 14 -12 12 -25 21 -30 21 -20
0 -288 189 -317 223 -7 9 -19 17 -25 17 -23 -1 172 -152 285 -220 101 -61 111
-71 39 -36 -89 43 -112 57 -175 104 -91 67 -165 140 -158 157 3 10 -1 15 -14
15 -11 0 -32 14 -49 32 -16 18 -20 26 -9 18 11 -8 25 -22 32 -30 7 -8 13 -11
13 -6 0 6 -11 21 -25 36 -13 14 -38 50 -54 80 -37 66 -41 59 -6 -10 14 -27 25
-52 25 -56 0 -3 -28 20 -62 51 -66 59 -183 124 -227 126 l-26 1 25 8 c20 6 16
8 -20 8 -25 -1 -55 -3 -67 -5z"/>
<path d="M1130 361 c14 -11 66 -41 115 -65 111 -56 211 -75 330 -64 204 20
351 42 483 74 281 68 510 75 796 24 65 -11 120 -19 123 -16 2 2 -40 11 -94 21
-129 22 -133 22 -100 24 15 0 27 6 27 11 0 6 -75 10 -206 10 -232 0 -340 -13
-559 -65 -77 -18 -167 -36 -200 -39 -33 -4 -71 -8 -85 -10 -14 -3 -81 -10
-149 -17 -98 -10 -126 -10 -129 0 -3 8 -8 9 -15 2 -21 -16 -166 27 -267 80
-52 27 -84 41 -70 30z"/>
</g>
</svg>
